<svg xmlns="http://www.w3.org/2000/svg" width="47" height="69" viewBox="0 0 47 69">
  <defs>
    <style>
      .cls-1 {
        fill: #fff;
        fill-opacity: 0;
        stroke: #fff;
        stroke-linejoin: round;
        stroke-width: 3px;
        fill-rule: evenodd;
        opacity: 0.7;
      }
    </style>
  </defs>
  <path id="scroll.svg" class="cls-1" d="M765.426,766h4.357c9.624,0,17.426,6.9,17.426,15.407V812.22c0,8.508-7.8,15.406-17.426,15.406h-4.357c-9.624,0-17.426-6.9-17.426-15.406V781.406C748,772.9,755.8,766,765.426,766Zm1.306,7.675c3.269,0,5.92,2.343,5.92,5.234v7.476c0,2.892-2.651,5.234-5.92,5.234s-5.919-2.342-5.919-5.234v-7.476C760.813,776.017,763.463,773.674,766.732,773.674Z" transform="translate(-744.5 -762.5)"/>
</svg>
